inDegrees=no
num_controls=7
num_derivatives=13
num_iterations=134
num_multipliers=7
num_parameters=0
num_slacks=7
num_states=26
objective=5.514688
objective_accelerations=0.411328
objective_balance=0.036843
objective_effort=0.432960
objective_height=4.608912
objective_ligament=0.024645
solver_duration=1479.856237
status=Solve_Succeeded
success=true
DataType=double
version=3
OpenSimVersion=4.4-2022-07-23-0e9fedc
endheader
time	/jointset/ground_pelvis/pelvis_tilt/value	/jointset/ground_pelvis/pelvis_tx/value	/jointset/ground_pelvis/pelvis_ty/value	/jointset/hip_l/hip_flexion_l/value	/jointset/hip_l/hip_adduction_l/value	/jointset/hip_l/hip_rotation_l/value	/jointset/back/lumbar_extension/value	/jointset/patellofemoral_l/patellar_flexion_l/value	/jointset/knee_l/knee_flexion_l/value	/jointset/knee_l/knee_adduction_l/value	/jointset/knee_l/knee_rotation_l/value	/jointset/ankle_l/ankle_angle_l/value	/jointset/subtalar_l/subtalar_angle_l/value	/jointset/ground_pelvis/pelvis_tilt/speed	/jointset/ground_pelvis/pelvis_tx/speed	/jointset/ground_pelvis/pelvis_ty/speed	/jointset/hip_l/hip_flexion_l/speed	/jointset/hip_l/hip_adduction_l/speed	/jointset/hip_l/hip_rotation_l/speed	/jointset/back/lumbar_extension/speed	/jointset/patellofemoral_l/patellar_flexion_l/speed	/jointset/knee_l/knee_flexion_l/speed	/jointset/knee_l/knee_adduction_l/speed	/jointset/knee_l/knee_rotation_l/speed	/jointset/ankle_l/ankle_angle_l/speed	/jointset/subtalar_l/subtalar_angle_l/speed	/forceset/tau_hip_flexion_l	/forceset/tau_hip_adduction_l	/forceset/tau_hip_rotation_l	/forceset/tau_knee_flexion_l	/forceset/tau_ankle_angle_l	/forceset/tau_subtalar_angle_l	/forceset/tau_lumbar_extension	lambda_cid13_p0	lambda_cid13_p1	lambda_cid13_p2	lambda_cid13_p3	lambda_cid13_p4	lambda_cid13_p5	lambda_cid14_p0	/jointset/ground_pelvis/pelvis_tilt/accel	/jointset/ground_pelvis/pelvis_tx/accel	/jointset/ground_pelvis/pelvis_ty/accel	/jointset/hip_l/hip_flexion_l/accel	/jointset/hip_l/hip_adduction_l/accel	/jointset/hip_l/hip_rotation_l/accel	/jointset/back/lumbar_extension/accel	/jointset/patellofemoral_l/patellar_flexion_l/accel	/jointset/knee_l/knee_flexion_l/accel	/jointset/knee_l/knee_adduction_l/accel	/jointset/knee_l/knee_rotation_l/accel	/jointset/ankle_l/ankle_angle_l/accel	/jointset/subtalar_l/subtalar_angle_l/accel	gamma_cid13_p0	gamma_cid13_p1	gamma_cid13_p2	gamma_cid13_p3	gamma_cid13_p4	gamma_cid13_p5	gamma_cid14_p0
0.5	-0.07966759418633075	-0.03536834158048392	0.8303045396808326	0.8303739812020255	-0.3340843314141311	-0.1023381470336088	-0.7778959194994465	0.8125805374699407	0.8125805374699133	-0.1321050919341657	-0.1744840275582795	0.1157822122041589	-0.003205078786765661	-0.0956005700638486	-0.1579405862065523	-0.3186945185821852	1.327799412030354	-0.04479927515175904	0.5115166405405707	-0.8406693676399776	1.490540617059998	1.490540617060007	0.0947276440643892	0.0001980285246421515	0.3592434090309062	0.0671517256906581	-0.2569639104772383	0.02169531737413266	-0.0008116443411943853	-0.2260928296792056	0.08550955430284554	0.04784919914919577	0.3175032069491242	-17.01730952264472	-19.83721399956268	5.03379103772637	-7.449594687271156	-704.2806753273809	-78.82629679158244	-14.02568749883913	0.2048363167239747	0.5785281821439284	-0.1110974508691304	-1.355928419913681	0.3131433305240892	-0.4275427441962051	1.703250911117861	-1.195138663559602	-1.195138663559628	-0.1557781603869952	0.01423738030680669	-0.07703330882073697	0.3403438819456349	-6.772667910528713e-08	-4.590682881509551e-07	1.895845460182218e-07	-4.522436007470402e-08	-8.021425242973656e-08	-1.39803259837587e-07	-8.237355997552633e-08
0.51	-0.0806132949853077	-0.03691877896899103	0.8271127076801016	0.8435823349768415	-0.3345171326097555	-0.09724535907496651	-0.7862165213663606	0.8274239789704515	0.8274239789703471	-0.1311662101485948	-0.1744820547860695	0.1193699695410147	-0.002517284694649392	-0.09352508825106499	-0.1521429152894799	-0.3196018329237155	1.31368791812124	-0.0417718315475905	0.5069753860316162	-0.8233661019967008	1.477935601561206	1.477935601561071	0.09303817227735472	0.0001922449800516602	0.3582451986337548	0.07037910275993109	-0.2624735555271893	0.02214113121756767	-0.0008807876901571379	-0.2288879798145673	0.08454538420118801	0.04808917584579107	0.3230814190441327	-17.52386357267472	-19.82199718679209	4.99624704706205	-7.275899149685446	-707.8109662056243	-78.7242596636662	-13.47122144403142	0.2110736948667626	0.580974381867898	-0.07005638190480466	-1.466279754378219	0.2959356918149887	-0.4773246164397784	1.756599953984122	-1.324979162981469	-1.324979163002857	-0.1771795987918361	-0.008586998361477412	-0.1206584742341133	0.3097827478236522	-6.434228869175026e-08	-4.068301144310589e-07	1.977527323089177e-07	-4.010482164299253e-08	-7.191424498047481e-08	-1.253973343844332e-07	-7.75712877099151e-08
0.52	-0.08153780704997383	-0.03841112208125302	0.8239139009447337	0.8566440698368351	-0.3349199812060826	-0.09219996522381382	-0.7943615434642599	0.8421350110819218	0.8421350110819077	-0.1302445526629518	-0.1744802600047044	0.1229458560600805	-0.001798047206160917	-0.09136282318565639	-0.1463217309575242	-0.3200894655096712	1.298475629093411	-0.03880875528533319	0.5020378190348543	-0.8055534138312527	1.464058739264697	1.464058739264418	0.09128278405309304	0.0001624303746912509	0.3568692454737104	0.07344040496541836	-0.2679832005775565	0.02258694506098554	-0.0009499310385324163	-0.2316831299500383	0.08358121409955382	0.04832915254236562	0.3286596311387725	-18.03367884457403	-19.8068247636168	4.959413309018728	-7.129484285972964	-711.4172324121795	-78.64861585427668	-12.91418463754301	0.222192967250092	0.5832308651196132	-0.02716109975437288	-1.576087443656367	0.3002698621419032	-0.5068052417577052	1.805135415552356	-1.449508023102725	-1.449508023102726	-0.1689614478323346	0.009431168152713738	-0.1525818614005486	0.3071289091880758	-6.023788666120646e-08	-3.504541693207932e-07	2.060262464647866e-07	-3.432888008322544e-08	-6.313763957955783e-08	-1.096427752681174e-07	-7.215368425453044e-08
0.53	-0.08244030002255555	-0.03984518982150283	0.8207123138540084	0.8695483703376091	-0.335293491023142	-0.08720575953577438	-0.8023260613172011	0.8567010855578504	0.8567010855578555	-0.1293407146448466	-0.1744787365402984	0.1265061592406836	-0.001048980947604155	-0.08912265578140442	-0.1404928855554479	-0.3201573449532691	1.282212106019607	-0.03590564180213417	0.4967354271061677	-0.7872848411272861	1.448955909010913	1.448955909010698	0.08948119432650148	0.0001348968485544649	0.3551316936534408	0.07634367313040884	-0.2731569376423891	0.02293615906220908	-0.001034259542851279	-0.2346000526317526	0.08271744401113743	0.0484612705927241	0.3339076552551805	-18.50646387046849	-19.7473303396571	4.910986805407659	-6.9367781942236	-714.8518358851538	-78.51816026779345	-12.35550727905495	0.2268900630659704	0.5825448468407457	0.01397807962077424	-1.677345823934398	0.2834714641051688	-0.5522026314565608	1.847515543236033	-1.570693700997786	-1.570693700987956	-0.1863491767315958	-0.009907185937228561	-0.1933066529367508	0.2775761996077445	-5.69539633296264e-08	-2.999823438299881e-07	2.151709727684933e-07	-2.848300233414353e-08	-5.641783780146803e-08	-9.570786336422569e-08	-6.746363286485037e-08
0.54	-0.0833199990339657	-0.04122100241391582	0.8175121638581045	0.8822848633906055	-0.3356383418308695	-0.08226662705943452	-0.8101059339740451	0.8711101270963628	0.8711101270964184	-0.128455010812567	-0.1744777007255518	0.1300472939409833	-0.0002717519215081099	-0.08680403093493153	-0.1346707013901608	-0.3198020465455428	1.264914139558067	-0.03307695341120855	0.4910231766562329	-0.7686243746065253	1.432652151777855	1.432652151777704	0.0876559469336062	6.490040480251649e-05	0.3530355494092916	0.07907295847354265	-0.2783306747073221	0.02328537306387888	-0.001118588049406869	-0.2375169753133068	0.08185367392291014	0.04859338864368764	0.3391556793713614	-18.98350042019626	-19.68757837875856	4.863075634240759	-6.768009848868484	-718.3748611327462	-78.41416329413052	-11.79625154296256	0.2378844556951986	0.581898617760906	0.05747447051028303	-1.782976121203428	0.2853848436870781	-0.5887769460073925	1.883514178911397	-1.68969341895733	-1.689693418957255	-0.1736929810930089	0.0009385846296401682	-0.2243003461775707	0.2723323448163795	-5.457780366498494e-08	-2.560427357905013e-07	2.252795933634248e-07	-2.255974837560695e-08	-5.197364854225089e-08	-8.378617816344144e-08	-6.357853269680095e-08
0.55	-0.08417613780771963	-0.04253865972596835	0.8143176912750667	0.8948433141517693	-0.3359552211327363	-0.07738641909862977	-0.8176973043850597	0.8853502350871848	0.8853502350871625	-0.1275876534324801	-0.174477325163257	0.1335657516423958	0.000531979222840298	-0.08441089877541942	-0.1288649154147991	-0.3190205848804918	1.246609338110905	-0.03030885280115551	0.4849589216336818	-0.7495921653622378	1.415177232662087	1.415177232661921	0.08581664522757174	1.367002111756284e-05	0.3506019743768231	0.08164817679377685	-0.2833378338246501	0.0235940015459185	-0.001203336585357667	-0.240414944740081	0.08092889005408635	0.04865832968167243	0.3442307099619122	-19.47741311598535	-19.59334657256243	4.806982943089975	-6.543966526391565	-721.7972735951779	-78.26617223609469	-11.2374941297119	0.2419453516261237	0.579291560281698	0.09925488136120293	-1.879239848302577	0.271021413852284	-0.6242289756281966	1.921705633119521	-1.805210923072427	-1.805210923074861	-0.18891401873283	-0.007588765423948334	-0.2609954174590185	0.2463624459472173	-5.11278915053785e-08	-2.157881978947991e-07	2.282801600285424e-07	-1.780071767143521e-08	-4.677839426945644e-08	-7.143380343682624e-08	-5.916104259723239e-08
0.5600000000000001	-0.08500796170881918	-0.04379838458369713	0.8111331878820526	0.9072137153599792	-0.3362447196797005	-0.07256864952706645	-0.8250966264364671	0.8994098299337474	0.8994098299338068	-0.1267386621199661	-0.1744773488879943	0.137058251726345	0.001360711724453599	-0.08194105639391253	-0.1230842105254135	-0.3178082085409589	1.227304228990531	-0.0276008024235698	0.4785354988011453	-0.7302147026805652	1.396549522938875	1.396549522938692	0.08398273338654869	-1.495698480891477e-05	0.3478440259172444	0.08407322992681961	-0.2883449929423714	0.02390263002792902	-0.001288085120502331	-0.2433129141669584	0.0800041061852883	0.04872327071962176	0.3493057405521218	-19.97609762802897	-19.49869247214052	4.751295155394581	-6.341887364702562	-725.3139979398752	-78.1446031153196	-10.68053248884603	0.2532265000949424	0.5768824005649096	0.1436574054065326	-1.9830376558459	0.2733747971937063	-0.6606105080044909	1.952564866388519	-1.920251540446168	-1.920251540446079	-0.1726150080906493	0.005459260181265593	-0.2891750316005746	0.2422993073777542	-4.638947635181411e-08	-1.799557441716383e-07	2.227510619778836e-07	-1.443875487250123e-08	-4.068186198036927e-08	-5.856460127921391e-08	-5.410468457984086e-08
